# xmcd
#
# Track frame offsets:
#	150
#	12885
#	22660
#	32987
#	47725
#	62622
#	76687
#	90932
#	102255
#	113885
#	125027
#	137575
#	151020
#	169330
#	183727
#	196180
#	207492
#	220090
#	234980
#	249462
#	260592
#
# Disc length: 3617 seconds
# Revision: 0
# Processed by: cddbd v1.5.2PL0 Copyright (c) Steve Scherf et al.
# Submitted via: dBpowerAMP V12.0
#
DISCID=120e1f15
DTITLE=Johnny Cash - Reader's Digest - Greatest Hits and Singles and Previously Unreleased Disc 4
DYEAR=1900
DGENRE=
TTITLE0=Any Old Wind That Blows
TTITLE1=Kentucky Straight
TTITLE2=The Loving Gift
TTITLE3=The Good Earth
TTITLE4=Best Friend
TTITLE5=Oney
TTITLE6=The Ballad of Annie Palmer
TTITLE7=Too Little, Too Late
TTITLE8=If I Had A Hammer
TTITLE9=Country Trash
TTITLE10=Welcome Back, Jesus
TTITLE11=Let There Be Country
TTITLE12=One Piece At A Time
TTITLE13=In A Young Girl's Mind
TTITLE14=Mountain Lady
TTITLE15=Michigan City Howdy Do
TTITLE16=Sold Out Of Flagpoles
TTITLE17=Committed To Parkview
TTITLE18=Daughter Of A Railroad Man
TTITLE19=Love Has Lost Again
TTITLE20=Go On Blues
EXTD=
EXTT0=
EXTT1=
EXTT2=
EXTT3=
EXTT4=
EXTT5=
EXTT6=
EXTT7=
EXTT8=
EXTT9=
EXTT10=
EXTT11=
EXTT12=
EXTT13=
EXTT14=
EXTT15=
EXTT16=
EXTT17=
EXTT18=
EXTT19=
EXTT20=
PLAYORDER=
